# xmcd CD database file
#
# Track frame offsets:
#	150
#	59530
#	101492
#	171252
#	210692
#
# Disc length: 3370 seconds
#
# Revision: 1
# Processed by: cddbd v1.5.1PL0 Copyright (c) Steve Scherf et al.
# Submitted via: CDex 1.51
#
DISCID=430d2805
DTITLE=Charles Mingus - Charles Mingus Presents Charles Mingus
DYEAR=1961
DGENRE=Jazz
TTITLE0=Folk Forms No.1
TTITLE1=Original Faubus Fables
TTITLE2=What Love
TTITLE3=All The Things You Could Be By Now If Sigmund Freud's Wife Was Your Mother
TTITLE4=Melody From The Drums
EXTD=YEAR: 1961
EXTT0=
EXTT1=
EXTT2=
EXTT3=
EXTT4=
PLAYORDER=
